# xmcd
#
# Track frame offsets: 
#        150
#        38760
#        57956
#        104730
#        158908
#        198798
#        242419
#
# Disc length: 3824 seconds
#
# Revision: 0
# Processed by: cddbd v1.5.1PL0 Copyright (c) Steve Scherf et al.
# Submitted via: ExactAudioCopy v0.95a3
#
DISCID=540eee07
DTITLE=Shape Of Despair - Shape Of Despair
DYEAR=2005
DGENRE=funeral doom
TTITLE0=Sleeping Murder
TTITLE1=Night's Dew
TTITLE2=Sylvan-night
TTITLE3=Quiet These Paintings Are - Outro
TTITLE4=To Adorn
TTITLE5=Shadowed Dreams
TTITLE6=In The Mist
EXTD=
EXTT0=
EXTT1=
EXTT2=
EXTT3=
EXTT4=
EXTT5=
EXTT6=
PLAYORDER=
